<svg width="481" height="559" viewBox="0 0 481 559" fill="none" xmlns="http://www.w3.org/2000/svg">
<g clip-path="url(#clip0_31_20154)">
<rect width="481" height="559" rx="15" fill="url(#paint0_linear_31_20154)"/>
<rect width="481" height="559" rx="15" fill="black" fill-opacity="0.2"/>
<path d="M22.7336 424.624C21.9192 400.885 38.5893 380.121 61.9426 375.785L399.989 313.017C428.849 307.658 455.717 329.228 456.724 358.564L460.642 472.772C461.573 499.923 439.807 522.435 412.64 522.418L72.433 522.206C46.5755 522.19 25.3776 501.694 24.4911 475.852L23.6986 452.753L22.7336 424.624Z" fill="white"/>
<g opacity="0.3">
<path d="M98.4886 -24.5841L52.3314 8.87744L53.3094 10.0643L99.4666 -23.3972L98.4886 -24.5841Z" fill="#263470"/>
<path d="M70.9211 -44.5808L55.6951 8.70068L57.2463 9.0907L72.4724 -44.1908L70.9211 -44.5808Z" fill="#263470"/>
<path d="M28.3341 -35.5684L26.92 -34.8677L52.0907 9.81696L53.5048 9.11619L28.3341 -35.5684Z" fill="#263470"/>
<path d="M-21.9553 -27.1597L-22.6816 -25.8232L52.4194 10.0846L53.1457 8.74815L-21.9553 -27.1597Z" fill="#263470"/>
<path d="M52.2329 11.1663L-33.0422 86.0156L-31.9495 87.1109L53.3256 12.2616L52.2329 11.1663Z" fill="#263470"/>
<path d="M99.4362 -24.5808L98.6118 -23.2954L144.881 2.81268L145.706 1.52728L99.4362 -24.5808Z" fill="#263470"/>
<path d="M142.429 1.01396L141.738 -0.342907L185.558 -20.0005L186.248 -18.6504L142.429 1.01396Z" fill="#263470"/>
<path d="M186.668 -19.4441L185.114 -19.0894L193.17 11.9555L194.724 11.6007L186.668 -19.4441Z" fill="#263470"/>
<path d="M193.794 12.455L145.096 2.86148L145.431 1.39551L194.128 10.9891L193.794 12.455Z" fill="#263470"/>
<path d="M141.978 -0.393126L55.4446 10.9707L55.6663 12.4563L142.2 1.09243L141.978 -0.393126Z" fill="#263470"/>
<path d="M144.436 1.87544L100.706 152.018L102.249 152.413L145.979 2.27076L144.436 1.87544Z" fill="#263470"/>
<path d="M56.3066 11.5367L54.7776 11.9766L100.733 152.528L102.262 152.088L56.3066 11.5367Z" fill="#263470"/>
<path d="M-32.1433 85.8744L-32.8845 87.2036L101.151 152.957L101.892 151.628L-32.1433 85.8744Z" fill="#263470"/>
<path d="M226.058 -10.433L225.706 -8.96973L271.054 0.623854L271.406 -0.839413L226.058 -10.433Z" fill="#263470"/>
<path d="M271.292 0.597753L271.067 -0.888671L310.583 -6.2207L310.808 -4.73428L271.292 0.597753Z" fill="#263470"/>
<path d="M308.684 -7.74838L307.264 -7.05664L331.272 36.2751L332.691 35.5834L308.684 -7.74838Z" fill="#263470"/>
<path d="M338.868 38.9035L290.861 34.5601L291.014 33.0669L339.021 37.4103L338.868 38.9035Z" fill="#263470"/>
<path d="M309.9 -5.82042L293.316 30.561L294.786 31.1508L311.371 -5.23068L309.9 -5.82042Z" fill="#263470"/>
<path d="M271.861 -0.509725L270.51 0.29248L293.427 34.2563L294.778 33.4541L271.861 -0.509725Z" fill="#263470"/>
<path d="M267.166 -0.191406L235.526 27.5801L236.619 28.6753L268.259 0.903855L267.166 -0.191406Z" fill="#263470"/>
<path d="M233.063 30.224L220.988 -10.7208L222.537 -11.123L234.604 29.8286L233.063 30.224Z" fill="#263470"/>
<path d="M233.447 30.6807L193.575 10.1026L194.346 8.78662L234.218 29.3647L233.447 30.6807Z" fill="#263470"/>
<path d="M233.905 29.2825L233.792 30.7788L290.895 34.5711L291.008 33.0749L233.905 29.2825Z" fill="#263470"/>
<path d="M193.225 11.2417L98.3231 150.591L99.6708 151.399L194.572 12.0492L193.225 11.2417Z" fill="#263470"/>
<path d="M235.504 33.2542L100.952 151.687L102.047 152.78L236.598 34.3481L235.504 33.2542Z" fill="#263470"/>
<path d="M234.633 30.0012L233.034 30.0337L235.255 126.294L236.854 126.262L234.633 30.0012Z" fill="#263470"/>
<path d="M293.424 33.4814L235.414 125.964L236.792 126.725L294.802 34.2421L293.424 33.4814Z" fill="#263470"/>
<path d="M334.316 35.4125L235.537 125.795L236.654 126.869L335.432 36.4863L334.316 35.4125Z" fill="#263470"/>
<path d="M335.657 35.6101L334.183 36.1919L364.865 104.589L366.339 104.007L335.657 35.6101Z" fill="#263470"/>
<path d="M365.331 101.942L363.915 102.638L400.096 167.361L401.512 166.664L365.331 101.942Z" fill="#263470"/>
<path d="M345.73 223.11L344.56 222.088L400.221 166.429L401.391 167.451L345.73 223.11Z" fill="#263470"/>
<path d="M365.455 103.658L234.812 123.549L235.068 125.03L365.711 105.139L365.455 103.658Z" fill="#263470"/>
<path d="M344.596 223.145L235.505 126.827L236.603 125.736L345.694 222.054L344.596 223.145Z" fill="#263470"/>
<path d="M364.842 104.305L344.407 222.521L345.986 222.761L366.421 104.545L364.842 104.305Z" fill="#263470"/>
<path d="M101.669 153.004L101.357 151.531L236.501 126.05L236.814 127.523L101.669 153.004Z" fill="#263470"/>
<path d="M235.287 126.247L225.086 225.794L226.678 225.938L236.879 126.391L235.287 126.247Z" fill="#263470"/>
<path d="M223.997 224.768L172.439 271.55L173.551 272.628L225.109 225.846L223.997 224.768Z" fill="#263470"/>
<path d="M235.543 125.742L100.974 238.083L102.038 239.204L236.606 126.863L235.543 125.742Z" fill="#263470"/>
<path d="M225.73 225.099L101.411 240.74L101.624 242.227L225.943 226.585L225.73 225.099Z" fill="#263470"/>
<path d="M102.575 155.002L100.772 241.519L102.371 241.548L104.174 155.032L102.575 155.002Z" fill="#263470"/>
<path d="M342.164 221.873L225.786 228.282L225.88 229.779L342.258 223.37L342.164 221.873Z" fill="#263470"/>
<path d="M401.404 166.472L400.241 167.501L436.965 203.978L438.127 202.948L401.404 166.472Z" fill="#263470"/>
<path d="M438.21 203.063L436.856 203.861L464.684 245.455L466.039 244.658L438.21 203.063Z" fill="#263470"/>
<path d="M465.5 245.748L465.231 244.275L547.956 230.598L548.232 232.077L465.5 245.748Z" fill="#263470"/>
<path d="M527.13 296.975L461.146 245.591L462.171 244.432L528.154 295.815L527.13 296.975Z" fill="#263470"/>
<path d="M457.936 293.596L457.887 295.096L527.546 297.092L527.595 295.593L457.936 293.596Z" fill="#263470"/>
<path d="M464.629 247.252L454.434 294.298L456.001 294.597L466.196 247.551L464.629 247.252Z" fill="#263470"/>
<path d="M348.771 223.662L347.87 224.901L457.561 295.086L458.462 293.846L348.771 223.662Z" fill="#263470"/>
<path d="M465.194 248.086L342.037 223.329L342.372 221.863L465.536 246.621L465.194 248.086Z" fill="#263470"/>
<path d="M437.334 202.773L350.052 221.103L350.402 222.566L437.683 204.237L437.334 202.773Z" fill="#263470"/>
<path d="M343.245 222.139L289.739 308.461L291.115 309.211L344.621 222.889L343.245 222.139Z" fill="#263470"/>
<path d="M296.576 307.663L295.877 309.012L382.335 348.46L383.034 347.111L296.576 307.663Z" fill="#263470"/>
<path d="M455.095 295.648L300.216 307.617L300.347 309.112L455.226 297.143L455.095 295.648Z" fill="#263470"/>
<path d="M458.72 294.084L457.243 294.658L485.075 357.714L486.552 357.14L458.72 294.084Z" fill="#263470"/>
<path d="M379.032 343.254L378.827 344.742L489.805 358.169L490.009 356.682L379.032 343.254Z" fill="#263470"/>
<path d="M457.571 293.836L378.494 343.396L379.383 344.644L458.459 295.084L457.571 293.836Z" fill="#263470"/>
<path d="M227.798 229.294L226.567 230.254L297.013 309.752L298.245 308.792L227.798 229.294Z" fill="#263470"/>
<path d="M98.5815 154.472L-33.0193 238.015L-32.1229 239.257L99.4779 155.715L98.5815 154.472Z" fill="#263470"/>
<path d="M-32.4694 237.938L-32.5065 239.438L99.0113 242.302L99.0484 240.802L-32.4694 237.938Z" fill="#263470"/>
<path d="M101.182 240.867L5.66144 280.964L6.31472 282.333L101.835 242.236L101.182 240.867Z" fill="#263470"/>
<path d="M172.925 271.364L5.94208 280.861L6.03887 282.358L173.021 272.861L172.925 271.364Z" fill="#263470"/>
<path d="M99.3041 240.796L98.66 242.169L172.649 272.706L173.293 271.333L99.3041 240.796Z" fill="#263470"/>
<path d="M174.913 270.491L149.268 357.228L150.809 357.628L176.454 270.892L174.913 270.491Z" fill="#263470"/>
<path d="M173.259 271.363L172.747 272.784L293.859 311.147L294.37 309.726L173.259 271.363Z" fill="#263470"/>
<path d="M5.49464 281.137L-25.1552 305.26L-24.1272 306.409L6.52263 282.286L5.49464 281.137Z" fill="#263470"/>
<path d="M-31.9282 238.099L-33.1108 239.109L8.59959 282.09L9.78227 281.08L-31.9282 238.099Z" fill="#263470"/>
<path d="M-29.677 306.834L-30.2955 308.217L8.8747 323.624L9.49315 322.241L-29.677 306.834Z" fill="#263470"/>
<path d="M9.59032 322.319L8.79529 323.62L55.2118 348.564L56.0068 347.263L9.59032 322.319Z" fill="#263470"/>
<path d="M53.4376 345.061L52.0394 401.127L53.6382 401.162L55.0364 345.096L53.4376 345.061Z" fill="#263470"/>
<path d="M6.84881 281.545L5.25366 281.653L8.43159 322.934L10.0267 322.826L6.84881 281.545Z" fill="#263470"/>
<path d="M55.6335 347.096L55.53 348.593L149.993 354.338L150.096 352.841L55.6335 347.096Z" fill="#263470"/>
<path d="M9.85267 281.212L8.52216 282.044L53.6352 345.492L54.9657 344.66L9.85267 281.212Z" fill="#263470"/>
<path d="M172.521 271.446L57.8419 343.401L58.7311 344.648L173.411 272.693L172.521 271.446Z" fill="#263470"/>
<path d="M151.566 357.086L151.035 355.668L293.74 308.252L294.27 309.671L151.566 357.086Z" fill="#263470"/>
<path d="M150.943 355.711L52.483 397.721L53.1452 399.086L151.605 357.076L150.943 355.711Z" fill="#263470"/>
<path d="M53.4582 396.477L52.1626 397.356L81.1238 434.897L82.4194 434.018L53.4582 396.477Z" fill="#263470"/>
<path d="M82.5958 434.165L81.0553 434.568L105.281 516.062L106.822 515.659L82.5958 434.165Z" fill="#263470"/>
<path d="M150.661 355.907L81.1909 433.977L82.4187 434.938L151.889 356.868L150.661 355.907Z" fill="#263470"/>
<path d="M151.971 356.078L150.591 356.836L211.666 454.636L213.046 453.878L151.971 356.078Z" fill="#263470"/>
<path d="M81.3505 432.134L81.0756 433.612L213.778 455.335L214.053 453.857L81.3505 432.134Z" fill="#263470"/>
<path d="M151.446 355.605L151.082 357.066L358.554 402.495L358.917 401.034L151.446 355.605Z" fill="#263470"/>
<path d="M294.658 308.645L293.32 309.466L358.08 402.327L359.419 401.506L294.658 308.645Z" fill="#263470"/>
<path d="M378.54 342.243L356.356 401.494L357.865 401.991L380.049 342.74L378.54 342.243Z" fill="#263470"/>
<path d="M358.526 401.083L212.117 453.386L212.686 454.788L359.096 402.485L358.526 401.083Z" fill="#263470"/>
<path d="M485.59 355.433L444.079 397.494L445.253 398.513L486.763 356.452L485.59 355.433Z" fill="#263470"/>
<path d="M444.084 398.44L377.737 345.59L378.777 344.445L445.124 397.295L444.084 398.44Z" fill="#263470"/>
<path d="M443.979 397.426L412.375 436.438L413.648 437.346L445.252 398.333L443.979 397.426Z" fill="#263470"/>
<path d="M412.557 437.51L358.321 402.436L359.222 401.202L413.466 436.269L412.557 437.51Z" fill="#263470"/>
<path d="M358.56 401.905L358.459 400.405L445.611 395.147L445.705 396.641L358.56 401.905Z" fill="#263470"/>
<path d="M419.586 489.344L412.215 436.985L413.807 436.788L421.178 489.146L419.586 489.344Z" fill="#263470"/>
<path d="M347.017 468.677L346.304 467.334L412.651 436.214L413.364 437.557L347.017 468.677Z" fill="#263470"/>
<path d="M358.885 406.049L344.991 473.271L346.558 473.556L360.452 406.334L358.885 406.049Z" fill="#263470"/>
<path d="M345.054 469.959L210.717 455.907L210.891 454.42L345.229 468.473L345.054 469.959Z" fill="#263470"/>
<path d="M346.784 460.739L346.32 462.179L420.356 483.157L420.819 481.717L346.784 460.739Z" fill="#263470"/>
<path d="M431.181 550.621L419.594 489.378L421.171 489.112L432.759 550.355L431.181 550.621Z" fill="#263470"/>
<path d="M354.293 537.748L344.349 469.318L345.934 469.113L355.878 537.543L354.293 537.748Z" fill="#263470"/>
<path d="M417.241 490.524L354.617 536.997L355.609 538.173L418.233 491.7L417.241 490.524Z" fill="#263470"/>
<path d="M356.84 538.943L356.597 540.426L431.9 551.297L432.143 549.815L356.84 538.943Z" fill="#263470"/>
<path d="M403.659 588.954L402.358 588.081L431.319 550.055L432.62 550.928L403.659 588.954Z" fill="#263470"/>
<path d="M402.409 589.016L354.482 538.143L355.689 537.148L403.608 588.02L402.409 589.016Z" fill="#263470"/>
<path d="M215.445 453.542L214.588 454.808L354.659 538.282L355.516 537.016L215.445 453.542Z" fill="#263470"/>
<path d="M354.659 536.919L258.091 591.516L258.917 592.801L355.485 538.203L354.659 536.919Z" fill="#263470"/>
<path d="M367.989 620.271L352.192 540.257L353.77 539.977L369.566 619.992L367.989 620.271Z" fill="#263470"/>
<path d="M257.706 592.391L211.618 454.4L213.145 453.95L259.225 591.935L257.706 592.391Z" fill="#263470"/>
<path d="M209.811 452.612L105.562 515.363L106.425 516.626L210.675 453.874L209.811 452.612Z" fill="#263470"/>
<path d="M177.336 560.099L175.809 559.642L211.618 453.943L213.145 454.406L177.336 560.099Z" fill="#263470"/>
<path d="M176.144 560.501L105.05 517.531L105.922 516.27L177.009 559.246L176.144 560.501Z" fill="#263470"/>
<path d="M104.784 516.678L84.1567 569.549L85.6585 570.064L106.286 517.193L104.784 516.678Z" fill="#263470"/>
<path d="M173.855 558.664L84.8555 569.017L85.0523 570.506L174.052 560.152L173.855 558.664Z" fill="#263470"/>
<path d="M176.987 630.793L174.719 558.415L176.325 558.374L178.586 630.745L176.987 630.793Z" fill="#263470"/>
<path d="M173.521 558.653L87.7274 609.094L88.5768 610.365L174.371 559.924L173.521 558.653Z" fill="#263470"/>
<path d="M475.96 578.802L474.87 577.698L531.28 528.564L532.37 529.669L475.96 578.802Z" fill="#263470"/>
<path d="M474.964 578.87L431.516 551.112L432.417 549.871L475.866 577.629L474.964 578.87Z" fill="#263470"/>
<path d="M152.494 8.90776C156.485 5.16391 156.485 -0.90609 152.494 -4.64994C148.502 -8.3938 142.031 -8.3938 138.039 -4.64994C134.048 -0.906086 134.048 5.1639 138.039 8.90775C142.031 12.6516 148.502 12.6516 152.494 8.90776Z" fill="#21C463"/>
<path d="M60.0273 16.2198C64.0188 12.4759 64.0188 6.40592 60.0273 2.66207C56.0359 -1.08179 49.5646 -1.08179 45.5732 2.66207C41.5817 6.40592 41.5817 12.4759 45.5732 16.2198C49.5646 19.9636 56.0359 19.9636 60.0273 16.2198Z" fill="#21C463"/>
<path d="M105.43 161.126C110.645 159.1 113.121 153.492 110.961 148.6C108.801 143.709 102.822 141.386 97.607 143.412C92.3919 145.438 89.9154 151.046 92.0756 155.938C94.2357 160.829 100.214 163.152 105.43 161.126Z" fill="#21C463"/>
<path d="M9.18161 332.506C14.8263 332.506 19.4023 328.214 19.4023 322.919C19.4023 317.625 14.8263 313.333 9.18161 313.333C3.53689 313.333 -1.03906 317.625 -1.03906 322.919C-1.03906 328.214 3.53689 332.506 9.18161 332.506Z" fill="#21C463"/>
<path d="M13.9555 283.196C14.8639 277.971 11.0839 273.044 5.51269 272.192C-0.0584853 271.34 -5.31115 274.885 -6.21947 280.111C-7.1278 285.337 -3.34781 290.263 2.22337 291.115C7.79454 291.967 13.0472 288.422 13.9555 283.196Z" fill="#21C463"/>
<path d="M193.961 21.3053C199.606 21.3053 204.182 17.0132 204.182 11.7186C204.182 6.42396 199.606 2.13184 193.961 2.13184C188.316 2.13184 183.74 6.42396 183.74 11.7186C183.74 17.0132 188.316 21.3053 193.961 21.3053Z" fill="#21C463"/>
<path d="M271.183 9.44105C276.828 9.44105 281.404 5.14892 281.404 -0.145685C281.404 -5.44029 276.828 -9.73242 271.183 -9.73242C265.538 -9.73242 260.963 -5.44029 260.963 -0.145685C260.963 5.14892 265.538 9.44105 271.183 9.44105Z" fill="#21C463"/>
<path d="M307.973 4.79067C313.618 4.79067 318.194 0.498547 318.194 -4.79607C318.194 -10.0907 313.618 -14.3828 307.973 -14.3828C302.328 -14.3828 297.753 -10.0907 297.753 -4.79607C297.753 0.498547 302.328 4.79067 307.973 4.79067Z" fill="#21C463"/>
<path d="M331.976 47.277C337.621 47.277 342.197 42.9848 342.197 37.6902C342.197 32.3956 337.621 28.1035 331.976 28.1035C326.332 28.1035 321.756 32.3956 321.756 37.6902C321.756 42.9848 326.332 47.277 331.976 47.277Z" fill="#21C463"/>
<path d="M294.096 43.4034C299.741 43.4034 304.317 39.1113 304.317 33.8167C304.317 28.5221 299.741 24.23 294.096 24.23C288.451 24.23 283.875 28.5221 283.875 33.8167C283.875 39.1113 288.451 43.4034 294.096 43.4034Z" fill="#21C463"/>
<path d="M246.131 32.8229C247.24 27.6315 243.652 22.5798 238.117 21.5397C232.582 20.4995 227.197 23.8647 226.088 29.0561C224.979 34.2475 228.566 39.2993 234.101 40.3395C239.636 41.3796 245.022 38.0143 246.131 32.8229Z" fill="#21C463"/>
<path d="M236.058 135.868C241.702 135.868 246.278 131.576 246.278 126.282C246.278 120.987 241.702 116.695 236.058 116.695C230.413 116.695 225.837 120.987 225.837 126.282C225.837 131.576 230.413 135.868 236.058 135.868Z" fill="#21C463"/>
<path d="M365.59 113.975C371.235 113.975 375.811 109.683 375.811 104.388C375.811 99.0934 371.235 94.8013 365.59 94.8013C359.945 94.8013 355.369 99.0934 355.369 104.388C355.369 109.683 359.945 113.975 365.59 113.975Z" fill="#21C463"/>
<path d="M400.81 176.528C406.455 176.528 411.031 172.235 411.031 166.941C411.031 161.646 406.455 157.354 400.81 157.354C395.165 157.354 390.589 161.646 390.589 166.941C390.589 172.235 395.165 176.528 400.81 176.528Z" fill="#21C463"/>
<path d="M437.535 213.005C443.179 213.005 447.755 208.713 447.755 203.419C447.755 198.124 443.179 193.832 437.535 193.832C431.89 193.832 427.314 198.124 427.314 203.419C427.314 208.713 431.89 213.005 437.535 213.005Z" fill="#21C463"/>
<path d="M475.276 247.178C476.572 242.025 473.17 236.862 467.676 235.646C462.182 234.43 456.678 237.621 455.381 242.774C454.084 247.927 457.487 253.09 462.981 254.307C468.474 255.523 473.979 252.332 475.276 247.178Z" fill="#21C463"/>
<path d="M485.818 367.035C491.462 367.035 496.038 362.743 496.038 357.448C496.038 352.153 491.462 347.861 485.818 347.861C480.173 347.861 475.597 352.153 475.597 357.448C475.597 362.743 480.173 367.035 485.818 367.035Z" fill="#21C463"/>
<path d="M468.209 295.587C468.877 290.33 464.875 285.56 459.27 284.933C453.665 284.306 448.579 288.06 447.911 293.317C447.243 298.574 451.245 303.345 456.85 303.972C462.455 304.598 467.54 300.845 468.209 295.587Z" fill="#21C463"/>
<path d="M348.286 231.687C353.658 230.061 356.608 224.659 354.875 219.62C353.142 214.581 347.382 211.814 342.01 213.439C336.637 215.065 333.687 220.468 335.42 225.507C337.154 230.545 342.913 233.312 348.286 231.687Z" fill="#21C463"/>
<path d="M101.517 251.094C107.162 251.094 111.738 246.802 111.738 241.507C111.738 236.213 107.162 231.92 101.517 231.92C95.8722 231.92 91.2962 236.213 91.2962 241.507C91.2962 246.802 95.8722 251.094 101.517 251.094Z" fill="#21C463"/>
<path d="M225.83 235.418C231.475 235.418 236.051 231.125 236.051 225.831C236.051 220.536 231.475 216.244 225.83 216.244C220.185 216.244 215.609 220.536 215.609 225.831C215.609 231.125 220.185 235.418 225.83 235.418Z" fill="#21C463"/>
<path d="M183.006 274.119C184.197 268.943 180.69 263.842 175.172 262.725C169.654 261.608 164.216 264.898 163.025 270.073C161.834 275.249 165.342 280.35 170.859 281.467C176.377 282.584 181.815 279.294 183.006 274.119Z" fill="#21C463"/>
<path d="M55.6038 357.448C61.2485 357.448 65.8244 353.156 65.8244 347.861C65.8244 342.567 61.2485 338.274 55.6038 338.274C49.9591 338.274 45.3831 342.567 45.3831 347.861C45.3831 353.156 49.9591 357.448 55.6038 357.448Z" fill="#21C463"/>
<path d="M52.9358 407.237C58.5806 407.237 63.1565 402.944 63.1565 397.65C63.1565 392.355 58.5806 388.063 52.9358 388.063C47.2911 388.063 42.7151 392.355 42.7151 397.65C42.7151 402.944 47.2911 407.237 52.9358 407.237Z" fill="#21C463"/>
<path d="M88.0249 442.044C92.1666 438.447 92.415 432.381 88.5798 428.497C84.7445 424.612 78.2778 424.379 74.1361 427.976C69.9944 431.573 69.746 437.639 73.5813 441.524C77.4166 445.409 83.8832 445.642 88.0249 442.044Z" fill="#21C463"/>
<path d="M152.533 367.035C158.178 367.035 162.754 362.743 162.754 357.448C162.754 352.153 158.178 347.861 152.533 347.861C146.888 347.861 142.312 352.153 142.312 357.448C142.312 362.743 146.888 367.035 152.533 367.035Z" fill="#21C463"/>
<path d="M306.267 310.18C307.332 304.98 303.702 299.955 298.159 298.956C292.616 297.956 287.258 301.361 286.193 306.561C285.127 311.76 288.757 316.785 294.3 317.785C299.844 318.784 305.201 315.379 306.267 310.18Z" fill="#21C463"/>
<path d="M382.049 353.14C387.432 351.544 390.416 346.158 388.715 341.11C387.014 336.061 381.271 333.262 375.889 334.858C370.507 336.454 367.523 341.84 369.224 346.888C370.925 351.937 376.667 354.736 382.049 353.14Z" fill="#21C463"/>
<path d="M444.92 407.237C450.565 407.237 455.141 402.944 455.141 397.65C455.141 392.355 450.565 388.063 444.92 388.063C439.275 388.063 434.699 392.355 434.699 397.65C434.699 402.944 439.275 407.237 444.92 407.237Z" fill="#21C463"/>
<path d="M417.634 445.261C422.681 442.89 424.724 437.131 422.196 432.397C419.669 427.662 413.528 425.746 408.481 428.117C403.434 430.488 401.391 436.247 403.919 440.982C406.446 445.716 412.587 447.632 417.634 445.261Z" fill="#21C463"/>
<path d="M429.901 493.872C431.205 488.721 427.811 483.553 422.319 482.329C416.827 481.106 411.317 484.29 410.013 489.442C408.708 494.593 412.103 499.761 417.595 500.984C423.087 502.207 428.597 499.023 429.901 493.872Z" fill="#21C463"/>
<path d="M430.236 558.755C435.881 558.755 440.457 554.463 440.457 549.168C440.457 543.874 435.881 539.582 430.236 539.582C424.591 539.582 420.015 543.874 420.015 549.168C420.015 554.463 424.591 558.755 430.236 558.755Z" fill="#21C463"/>
<path d="M368.298 403.976C369.945 398.912 366.904 393.554 361.505 392.008C356.106 390.463 350.394 393.315 348.746 398.38C347.099 403.444 350.14 408.802 355.539 410.347C360.938 411.892 366.65 409.04 368.298 403.976Z" fill="#21C463"/>
<path d="M348.255 478.344C353.631 476.73 356.595 471.335 354.876 466.292C353.156 461.249 347.403 458.469 342.027 460.082C336.65 461.695 333.686 467.091 335.406 472.134C337.126 477.177 342.879 479.957 348.255 478.344Z" fill="#21C463"/>
<path d="M211.931 465.384C217.575 465.384 222.151 461.092 222.151 455.797C222.151 450.503 217.575 446.211 211.931 446.211C206.286 446.211 201.71 450.503 201.71 455.797C201.71 461.092 206.286 465.384 211.931 465.384Z" fill="#21C463"/>
<path d="M105.399 525.087C111.043 525.087 115.619 520.794 115.619 515.5C115.619 510.205 111.043 505.913 105.399 505.913C99.7538 505.913 95.1778 510.205 95.1778 515.5C95.1778 520.794 99.7538 525.087 105.399 525.087Z" fill="#21C463"/>
<path d="M355.369 549.169C361.014 549.169 365.59 544.877 365.59 539.582C365.59 534.288 361.014 529.996 355.369 529.996C349.724 529.996 345.148 534.288 345.148 539.582C345.148 544.877 349.724 549.169 355.369 549.169Z" fill="#21C463"/>
<path d="M187.376 560.338C188.276 555.112 184.489 550.19 178.917 549.345C173.344 548.5 168.097 552.053 167.196 557.279C166.296 562.506 170.083 567.428 175.656 568.273C181.228 569.118 186.475 565.565 187.376 560.338Z" fill="#21C463"/>
<path style="mix-blend-mode:multiply" d="M483.339 293.157C483.339 300.555 472.035 306.555 458.085 306.555C444.135 306.555 432.838 300.555 432.838 293.157C432.838 285.759 444.142 279.752 458.085 279.752C472.027 279.752 483.339 285.752 483.339 293.157Z" fill="url(#paint1_radial_31_20154)"/>
<path style="mix-blend-mode:multiply" d="M470.719 293.156C470.719 296.859 465.064 299.859 458.085 299.859C451.107 299.859 445.466 296.859 445.466 293.156C445.466 289.454 451.114 286.454 458.085 286.454C465.057 286.454 470.719 289.454 470.719 293.156Z" fill="url(#paint2_radial_31_20154)"/>
<path style="mix-blend-mode:multiply" d="M370.402 466.856C370.402 474.261 359.099 480.261 345.149 480.261C331.199 480.261 319.902 474.261 319.902 466.856C319.902 459.451 331.199 453.458 345.149 453.458C359.099 453.458 370.402 459.458 370.402 466.856Z" fill="url(#paint3_radial_31_20154)"/>
<path style="mix-blend-mode:multiply" d="M357.775 466.856C357.775 470.566 352.127 473.566 345.149 473.566C338.17 473.566 332.522 470.566 332.522 466.856C332.522 463.147 338.177 460.161 345.149 460.161C352.12 460.161 357.775 463.161 357.775 466.856Z" fill="url(#paint4_radial_31_20154)"/>
<path style="mix-blend-mode:multiply" d="M122.321 157.354C122.321 163.702 112.639 168.843 100.688 168.843C88.7371 168.843 79.0325 163.702 79.0325 157.354C79.0325 151.006 88.7226 145.872 100.673 145.872C112.624 145.872 122.321 151.013 122.321 157.354Z" fill="url(#paint5_radial_31_20154)"/>
<path style="mix-blend-mode:multiply" d="M111.505 157.353C111.505 160.531 106.663 163.101 100.688 163.101C94.7126 163.101 89.864 160.531 89.864 157.353C89.864 154.176 94.7126 151.612 100.688 151.612C106.663 151.612 111.505 154.183 111.505 157.353Z" fill="url(#paint6_radial_31_20154)"/>
<path style="mix-blend-mode:multiply" d="M440.231 490.428C440.231 496.769 430.549 501.91 418.598 501.91C406.647 501.91 396.957 496.769 396.957 490.428C396.957 484.087 406.647 478.939 418.598 478.939C430.549 478.939 440.231 484.08 440.231 490.428Z" fill="url(#paint7_radial_31_20154)"/>
<path style="mix-blend-mode:multiply" d="M429.415 490.428C429.415 493.598 424.573 496.169 418.598 496.169C412.623 496.169 407.774 493.598 407.774 490.428C407.774 487.257 412.623 484.68 418.598 484.68C424.573 484.68 429.415 487.257 429.415 490.428Z" fill="url(#paint8_radial_31_20154)"/>
<path style="mix-blend-mode:multiply" d="M359.251 219.347C359.251 223.438 353.028 226.731 345.337 226.731C337.646 226.731 331.431 223.431 331.431 219.347C331.431 215.263 337.654 211.969 345.337 211.969C353.021 211.969 359.251 215.269 359.251 219.347Z" fill="url(#paint9_radial_31_20154)"/>
<path style="mix-blend-mode:multiply" d="M352.302 219.347C352.302 221.393 349.183 223.043 345.338 223.043C341.492 223.043 338.388 221.393 338.388 219.347C338.388 217.302 341.499 215.659 345.338 215.659C349.176 215.659 352.302 217.316 352.302 219.347Z" fill="url(#paint10_radial_31_20154)"/>
<path style="mix-blend-mode:multiply" d="M392.596 343.776C392.596 347.868 386.366 351.161 378.682 351.161C370.998 351.161 364.776 347.854 364.776 343.776C364.776 339.699 370.998 336.392 378.682 336.392C386.366 336.392 392.596 339.699 392.596 343.776Z" fill="url(#paint11_radial_31_20154)"/>
<path style="mix-blend-mode:multiply" d="M385.639 343.776C385.639 345.822 382.528 347.465 378.682 347.465C374.837 347.465 371.725 345.815 371.725 343.776C371.725 341.737 374.844 340.081 378.682 340.081C382.52 340.081 385.639 341.737 385.639 343.776Z" fill="url(#paint12_radial_31_20154)"/>
<path style="mix-blend-mode:multiply" d="M378.98 102.724C378.98 106.686 372.925 109.904 365.459 109.904C357.994 109.904 351.931 106.686 351.931 102.724C351.931 98.7627 357.986 95.5444 365.459 95.5444C372.932 95.5444 378.98 98.7559 378.98 102.724Z" fill="url(#paint13_radial_31_20154)"/>
<path style="mix-blend-mode:multiply" d="M372.219 102.725C372.219 104.709 369.195 106.311 365.459 106.311C361.723 106.311 358.699 104.709 358.699 102.725C358.699 100.74 361.723 99.1313 365.459 99.1313C369.195 99.1313 372.219 100.74 372.219 102.725Z" fill="url(#paint14_radial_31_20154)"/>
<path style="mix-blend-mode:multiply" d="M17.1849 279.752C17.1849 283.72 11.1296 286.931 3.65672 286.931C-3.81614 286.931 -9.8642 283.72 -9.8642 279.752C-9.8642 275.783 -3.81614 272.572 3.65672 272.572C11.1296 272.572 17.1849 275.79 17.1849 279.752Z" fill="url(#paint15_radial_31_20154)"/>
<path style="mix-blend-mode:multiply" d="M10.4246 279.752C10.4246 281.736 7.39328 283.345 3.65684 283.345C-0.0796015 283.345 -3.10364 281.736 -3.10364 279.752C-3.10364 277.767 -0.0796015 276.165 3.65684 276.165C7.39328 276.165 10.4246 277.754 10.4246 279.752Z" fill="url(#paint16_radial_31_20154)"/>
<path style="mix-blend-mode:multiply" d="M250.589 31.1509C250.589 35.242 244.33 38.5694 236.61 38.5694C228.89 38.5694 222.638 35.2488 222.638 31.1509C222.638 27.053 228.89 23.7324 236.61 23.7324C244.33 23.7324 250.589 27.053 250.589 31.1509Z" fill="url(#paint17_radial_31_20154)"/>
<path style="mix-blend-mode:multiply" d="M243.567 31.1511C243.567 33.1967 240.434 34.8604 236.574 34.8604C232.714 34.8604 229.588 33.2035 229.588 31.1511C229.588 29.0988 232.714 27.4419 236.574 27.4419C240.434 27.4419 243.567 29.0988 243.567 31.1511Z" fill="url(#paint18_radial_31_20154)"/>
<path style="mix-blend-mode:multiply" d="M198.795 555.735C198.795 561.981 189.258 567.04 177.496 567.04C165.734 567.04 156.197 561.981 156.197 555.735C156.197 549.489 165.727 544.43 177.496 544.43C189.265 544.43 198.795 549.489 198.795 555.735Z" fill="url(#paint19_radial_31_20154)"/>
<path style="mix-blend-mode:multiply" d="M188.146 555.735C188.146 558.858 183.377 561.388 177.496 561.388C171.615 561.388 166.846 558.858 166.846 555.735C166.846 552.613 171.608 550.083 177.496 550.083C183.384 550.083 188.146 552.613 188.146 555.735Z" fill="url(#paint20_radial_31_20154)"/>
<path style="mix-blend-mode:multiply" d="M257.677 223.997C257.677 233.713 242.84 241.588 224.536 241.588C206.232 241.588 191.395 233.713 191.395 223.997C191.395 214.281 206.232 206.405 224.536 206.405C242.84 206.405 257.677 214.281 257.677 223.997Z" fill="url(#paint21_radial_31_20154)"/>
<path style="mix-blend-mode:multiply" d="M241.139 223.997C241.139 228.859 233.717 232.793 224.565 232.793C215.413 232.793 207.991 228.859 207.991 223.997C207.991 219.135 215.413 215.201 224.565 215.201C233.717 215.201 241.139 219.115 241.139 223.997Z" fill="url(#paint22_radial_31_20154)"/>
<path style="mix-blend-mode:multiply" d="M179.022 387.449C179.022 397.165 164.193 405.04 145.882 405.04C127.57 405.04 112.741 397.165 112.741 387.449C112.741 377.732 127.577 369.857 145.882 369.857C164.186 369.857 179.022 377.732 179.022 387.449Z" fill="url(#paint23_radial_31_20154)"/>
<path style="mix-blend-mode:multiply" d="M162.456 387.449C162.456 392.31 155.041 396.244 145.881 396.244C136.722 396.244 129.315 392.31 129.315 387.449C129.315 382.587 136.729 378.653 145.881 378.653C155.034 378.653 162.456 382.594 162.456 387.449Z" fill="url(#paint24_radial_31_20154)"/>
<path style="mix-blend-mode:multiply" d="M226.07 452.231C226.07 456.199 220.014 459.41 212.549 459.41C205.083 459.41 199.02 456.199 199.02 452.231C199.02 448.262 205.076 445.051 212.549 445.051C220.022 445.051 226.07 448.269 226.07 452.231Z" fill="url(#paint25_radial_31_20154)"/>
<path style="mix-blend-mode:multiply" d="M219.33 452.231C219.33 454.215 216.306 455.824 212.57 455.824C208.833 455.824 205.802 454.215 205.802 452.231C205.802 450.247 208.833 448.645 212.57 448.645C216.306 448.645 219.33 450.261 219.33 452.231Z" fill="url(#paint26_radial_31_20154)"/>
<path style="mix-blend-mode:multiply" d="M309.769 305.027C309.769 309.118 303.539 312.412 295.856 312.412C288.172 312.412 281.949 309.118 281.949 305.027C281.949 300.936 288.172 297.643 295.856 297.643C303.539 297.643 309.769 300.936 309.769 305.027Z" fill="url(#paint27_radial_31_20154)"/>
<path style="mix-blend-mode:multiply" d="M302.812 305.028C302.812 307.073 299.701 308.716 295.855 308.716C292.01 308.716 288.899 307.066 288.899 305.028C288.899 302.989 292.017 301.332 295.855 301.332C299.694 301.332 302.812 302.982 302.812 305.028Z" fill="url(#paint28_radial_31_20154)"/>
<path style="mix-blend-mode:multiply" d="M194.412 269.088C194.412 275.333 184.874 280.4 173.112 280.4C161.351 280.4 151.813 275.333 151.813 269.088C151.813 262.842 161.343 257.79 173.112 257.79C184.881 257.79 194.412 262.849 194.412 269.088Z" fill="url(#paint29_radial_31_20154)"/>
<path style="mix-blend-mode:multiply" d="M183.762 269.088C183.762 272.218 178.994 274.747 173.113 274.747C167.232 274.747 162.463 272.218 162.463 269.088C162.463 265.958 167.232 263.442 173.113 263.442C178.994 263.442 183.762 265.972 183.762 269.088Z" fill="url(#paint30_radial_31_20154)"/>
<path style="mix-blend-mode:multiply" d="M115.052 238.705C115.052 242.673 109.004 245.885 101.531 245.885C94.0584 245.885 88.0103 242.673 88.0103 238.705C88.0103 234.736 94.0584 231.532 101.531 231.532C109.004 231.532 115.052 234.743 115.052 238.705Z" fill="url(#paint31_radial_31_20154)"/>
<path style="mix-blend-mode:multiply" d="M108.292 238.705C108.292 240.689 105.268 242.298 101.532 242.298C97.7951 242.298 94.7711 240.689 94.7711 238.705C94.7711 236.721 97.7951 235.119 101.532 235.119C105.268 235.119 108.292 236.728 108.292 238.705Z" fill="url(#paint32_radial_31_20154)"/>
</g>
</g>
<defs>
<linearGradient id="paint0_linear_31_20154" x1="-133.666" y1="-215.422" x2="913.641" y2="-99.92" gradientUnits="userSpaceOnUse">
<stop stop-color="#263470"/>
<stop offset="1" stop-color="#21C463"/>
</linearGradient>
<radialGradient id="paint1_radial_31_20154" cx="0" cy="0" r="1" gradientUnits="userSpaceOnUse" gradientTransform="translate(457.395 241.494) scale(21.8586 12.4259)">
<stop stop-color="#939598"/>
<stop offset="0.15" stop-color="#989A9D"/>
<stop offset="0.34" stop-color="#A8AAAC"/>
<stop offset="0.55" stop-color="#C2C3C5"/>
<stop offset="0.77" stop-color="#E6E7E8"/>
<stop offset="0.78" stop-color="#E6E7E8"/>
<stop offset="1" stop-color="white"/>
</radialGradient>
<radialGradient id="paint2_radial_31_20154" cx="0" cy="0" r="1" gradientUnits="userSpaceOnUse" gradientTransform="translate(41003.1 253665) scale(575.279 305.367)">
<stop stop-color="#939598"/>
<stop offset="0.15" stop-color="#989A9D"/>
<stop offset="0.34" stop-color="#A8AAAC"/>
<stop offset="0.55" stop-color="#C2C3C5"/>
<stop offset="0.77" stop-color="#E6E7E8"/>
<stop offset="0.78" stop-color="#E6E7E8"/>
<stop offset="1" stop-color="white"/>
</radialGradient>
<radialGradient id="paint3_radial_31_20154" cx="0" cy="0" r="1" gradientUnits="userSpaceOnUse" gradientTransform="translate(69562.7 523981) scale(2300.79 1221.16)">
<stop stop-color="#939598"/>
<stop offset="0.15" stop-color="#989A9D"/>
<stop offset="0.34" stop-color="#A8AAAC"/>
<stop offset="0.55" stop-color="#C2C3C5"/>
<stop offset="0.77" stop-color="#E6E7E8"/>
<stop offset="0.78" stop-color="#E6E7E8"/>
<stop offset="1" stop-color="white"/>
</radialGradient>
<radialGradient id="paint4_radial_31_20154" cx="0" cy="0" r="1" gradientUnits="userSpaceOnUse" gradientTransform="translate(34952.4 262292) scale(575.277 305.367)">
<stop stop-color="#939598"/>
<stop offset="0.15" stop-color="#989A9D"/>
<stop offset="0.34" stop-color="#A8AAAC"/>
<stop offset="0.55" stop-color="#C2C3C5"/>
<stop offset="0.77" stop-color="#E6E7E8"/>
<stop offset="0.78" stop-color="#E6E7E8"/>
<stop offset="1" stop-color="white"/>
</radialGradient>
<radialGradient id="paint5_radial_31_20154" cx="0" cy="0" r="1" gradientUnits="userSpaceOnUse" gradientTransform="translate(37400.5 423016) scale(1690 896.799)">
<stop stop-color="#939598"/>
<stop offset="0.15" stop-color="#989A9D"/>
<stop offset="0.34" stop-color="#A8AAAC"/>
<stop offset="0.55" stop-color="#C2C3C5"/>
<stop offset="0.77" stop-color="#E6E7E8"/>
<stop offset="0.78" stop-color="#E6E7E8"/>
<stop offset="1" stop-color="white"/>
</radialGradient>
<radialGradient id="paint6_radial_31_20154" cx="0" cy="0" r="1" gradientUnits="userSpaceOnUse" gradientTransform="translate(18742.9 211651) scale(422.428 224.266)">
<stop stop-color="#939598"/>
<stop offset="0.15" stop-color="#989A9D"/>
<stop offset="0.34" stop-color="#A8AAAC"/>
<stop offset="0.55" stop-color="#C2C3C5"/>
<stop offset="0.77" stop-color="#E6E7E8"/>
<stop offset="0.78" stop-color="#E6E7E8"/>
<stop offset="1" stop-color="white"/>
</radialGradient>
<radialGradient id="paint7_radial_31_20154" cx="0" cy="0" r="1" gradientUnits="userSpaceOnUse" gradientTransform="translate(66345.8 451122) scale(1689.43 896.796)">
<stop stop-color="#939598"/>
<stop offset="0.15" stop-color="#989A9D"/>
<stop offset="0.34" stop-color="#A8AAAC"/>
<stop offset="0.55" stop-color="#C2C3C5"/>
<stop offset="0.77" stop-color="#E6E7E8"/>
<stop offset="0.78" stop-color="#E6E7E8"/>
<stop offset="1" stop-color="white"/>
</radialGradient>
<radialGradient id="paint8_radial_31_20154" cx="0" cy="0" r="1" gradientUnits="userSpaceOnUse" gradientTransform="translate(33383.2 225873) scale(422.429 224.263)">
<stop stop-color="#939598"/>
<stop offset="0.15" stop-color="#989A9D"/>
<stop offset="0.34" stop-color="#A8AAAC"/>
<stop offset="0.55" stop-color="#C2C3C5"/>
<stop offset="0.77" stop-color="#E6E7E8"/>
<stop offset="0.78" stop-color="#E6E7E8"/>
<stop offset="1" stop-color="white"/>
</radialGradient>
<radialGradient id="paint9_radial_31_20154" cx="0" cy="0" r="1" gradientUnits="userSpaceOnUse" gradientTransform="translate(38480.7 275282) scale(698.271 370.523)">
<stop stop-color="#939598"/>
<stop offset="0.15" stop-color="#989A9D"/>
<stop offset="0.34" stop-color="#A8AAAC"/>
<stop offset="0.55" stop-color="#C2C3C5"/>
<stop offset="0.77" stop-color="#E6E7E8"/>
<stop offset="0.78" stop-color="#E6E7E8"/>
<stop offset="1" stop-color="white"/>
</radialGradient>
<radialGradient id="paint10_radial_31_20154" cx="0" cy="0" r="1" gradientUnits="userSpaceOnUse" gradientTransform="translate(19416.3 137816) scale(174.615 92.6741)">
<stop stop-color="#939598"/>
<stop offset="0.15" stop-color="#989A9D"/>
<stop offset="0.34" stop-color="#A8AAAC"/>
<stop offset="0.55" stop-color="#C2C3C5"/>
<stop offset="0.77" stop-color="#E6E7E8"/>
<stop offset="0.78" stop-color="#E6E7E8"/>
<stop offset="1" stop-color="white"/>
</radialGradient>
<radialGradient id="paint11_radial_31_20154" cx="0" cy="0" r="1" gradientUnits="userSpaceOnUse" gradientTransform="translate(40445.9 282204) scale(698.282 370.694)">
<stop stop-color="#939598"/>
<stop offset="0.15" stop-color="#989A9D"/>
<stop offset="0.34" stop-color="#A8AAAC"/>
<stop offset="0.55" stop-color="#C2C3C5"/>
<stop offset="0.77" stop-color="#E6E7E8"/>
<stop offset="0.78" stop-color="#E6E7E8"/>
<stop offset="1" stop-color="white"/>
</radialGradient>
<radialGradient id="paint12_radial_31_20154" cx="0" cy="0" r="1" gradientUnits="userSpaceOnUse" gradientTransform="translate(20415.8 141275) scale(174.618 92.6735)">
<stop stop-color="#939598"/>
<stop offset="0.15" stop-color="#989A9D"/>
<stop offset="0.34" stop-color="#A8AAAC"/>
<stop offset="0.55" stop-color="#C2C3C5"/>
<stop offset="0.77" stop-color="#E6E7E8"/>
<stop offset="0.78" stop-color="#E6E7E8"/>
<stop offset="1" stop-color="white"/>
</radialGradient>
<radialGradient id="paint13_radial_31_20154" cx="0" cy="0" r="1" gradientUnits="userSpaceOnUse" gradientTransform="translate(38577.4 261591) scale(660.002 350.375)">
<stop stop-color="#939598"/>
<stop offset="0.15" stop-color="#989A9D"/>
<stop offset="0.34" stop-color="#A8AAAC"/>
<stop offset="0.55" stop-color="#C2C3C5"/>
<stop offset="0.77" stop-color="#E6E7E8"/>
<stop offset="0.78" stop-color="#E6E7E8"/>
<stop offset="1" stop-color="white"/>
</radialGradient>
<radialGradient id="paint14_radial_31_20154" cx="0" cy="0" r="1" gradientUnits="userSpaceOnUse" gradientTransform="translate(19464.3 130847) scale(164.954 87.5935)">
<stop stop-color="#939598"/>
<stop offset="0.15" stop-color="#989A9D"/>
<stop offset="0.34" stop-color="#A8AAAC"/>
<stop offset="0.55" stop-color="#C2C3C5"/>
<stop offset="0.77" stop-color="#E6E7E8"/>
<stop offset="0.78" stop-color="#E6E7E8"/>
<stop offset="1" stop-color="white"/>
</radialGradient>
<radialGradient id="paint15_radial_31_20154" cx="0" cy="0" r="1" gradientUnits="userSpaceOnUse" gradientTransform="translate(17842.5 270996) scale(659.998 350.376)">
<stop stop-color="#939598"/>
<stop offset="0.15" stop-color="#989A9D"/>
<stop offset="0.34" stop-color="#A8AAAC"/>
<stop offset="0.55" stop-color="#C2C3C5"/>
<stop offset="0.77" stop-color="#E6E7E8"/>
<stop offset="0.78" stop-color="#E6E7E8"/>
<stop offset="1" stop-color="white"/>
</radialGradient>
<radialGradient id="paint16_radial_31_20154" cx="0" cy="0" r="1" gradientUnits="userSpaceOnUse" gradientTransform="translate(8923.63 135639) scale(165.044 87.5942)">
<stop stop-color="#939598"/>
<stop offset="0.15" stop-color="#989A9D"/>
<stop offset="0.34" stop-color="#A8AAAC"/>
<stop offset="0.55" stop-color="#C2C3C5"/>
<stop offset="0.77" stop-color="#E6E7E8"/>
<stop offset="0.78" stop-color="#E6E7E8"/>
<stop offset="1" stop-color="white"/>
</radialGradient>
<radialGradient id="paint17_radial_31_20154" cx="0" cy="0" r="1" gradientUnits="userSpaceOnUse" gradientTransform="translate(32223.1 266356) scale(704.916 374.188)">
<stop stop-color="#939598"/>
<stop offset="0.15" stop-color="#989A9D"/>
<stop offset="0.34" stop-color="#A8AAAC"/>
<stop offset="0.55" stop-color="#C2C3C5"/>
<stop offset="0.77" stop-color="#E6E7E8"/>
<stop offset="0.78" stop-color="#E6E7E8"/>
<stop offset="1" stop-color="white"/>
</radialGradient>
<radialGradient id="paint18_radial_31_20154" cx="0" cy="0" r="1" gradientUnits="userSpaceOnUse" gradientTransform="translate(16231.7 133195) scale(176.271 93.5472)">
<stop stop-color="#939598"/>
<stop offset="0.15" stop-color="#989A9D"/>
<stop offset="0.34" stop-color="#A8AAAC"/>
<stop offset="0.55" stop-color="#C2C3C5"/>
<stop offset="0.77" stop-color="#E6E7E8"/>
<stop offset="0.78" stop-color="#E6E7E8"/>
<stop offset="1" stop-color="white"/>
</radialGradient>
<radialGradient id="paint19_radial_31_20154" cx="0" cy="0" r="1" gradientUnits="userSpaceOnUse" gradientTransform="translate(43693.2 449460) scale(1637.05 868.897)">
<stop stop-color="#939598"/>
<stop offset="0.15" stop-color="#989A9D"/>
<stop offset="0.34" stop-color="#A8AAAC"/>
<stop offset="0.55" stop-color="#C2C3C5"/>
<stop offset="0.77" stop-color="#E6E7E8"/>
<stop offset="0.78" stop-color="#E6E7E8"/>
<stop offset="1" stop-color="white"/>
</radialGradient>
<radialGradient id="paint20_radial_31_20154" cx="0" cy="0" r="1" gradientUnits="userSpaceOnUse" gradientTransform="translate(21930.9 225012) scale(409.156 217.17)">
<stop stop-color="#939598"/>
<stop offset="0.15" stop-color="#989A9D"/>
<stop offset="0.34" stop-color="#A8AAAC"/>
<stop offset="0.55" stop-color="#C2C3C5"/>
<stop offset="0.77" stop-color="#E6E7E8"/>
<stop offset="0.78" stop-color="#E6E7E8"/>
<stop offset="1" stop-color="white"/>
</radialGradient>
<radialGradient id="paint21_radial_31_20154" cx="0" cy="0" r="1" gradientUnits="userSpaceOnUse" gradientTransform="translate(74441.1 656386) scale(3963.66 2103.96)">
<stop stop-color="#939598"/>
<stop offset="0.15" stop-color="#989A9D"/>
<stop offset="0.34" stop-color="#A8AAAC"/>
<stop offset="0.55" stop-color="#C2C3C5"/>
<stop offset="0.77" stop-color="#E6E7E8"/>
<stop offset="0.78" stop-color="#E6E7E8"/>
<stop offset="1" stop-color="white"/>
</radialGradient>
<radialGradient id="paint22_radial_31_20154" cx="0" cy="0" r="1" gradientUnits="userSpaceOnUse" gradientTransform="translate(37329.9 328310) scale(990.796 525.813)">
<stop stop-color="#939598"/>
<stop offset="0.15" stop-color="#989A9D"/>
<stop offset="0.34" stop-color="#A8AAAC"/>
<stop offset="0.55" stop-color="#C2C3C5"/>
<stop offset="0.77" stop-color="#E6E7E8"/>
<stop offset="0.78" stop-color="#E6E7E8"/>
<stop offset="1" stop-color="white"/>
</radialGradient>
<radialGradient id="paint23_radial_31_20154" cx="0" cy="0" r="1" gradientUnits="userSpaceOnUse" gradientTransform="translate(63509.4 677428) scale(3963.66 2103.96)">
<stop stop-color="#939598"/>
<stop offset="0.15" stop-color="#989A9D"/>
<stop offset="0.34" stop-color="#A8AAAC"/>
<stop offset="0.55" stop-color="#C2C3C5"/>
<stop offset="0.77" stop-color="#E6E7E8"/>
<stop offset="0.78" stop-color="#E6E7E8"/>
<stop offset="1" stop-color="white"/>
</radialGradient>
<radialGradient id="paint24_radial_31_20154" cx="0" cy="0" r="1" gradientUnits="userSpaceOnUse" gradientTransform="translate(31817 338912) scale(990.583 525.814)">
<stop stop-color="#939598"/>
<stop offset="0.15" stop-color="#989A9D"/>
<stop offset="0.34" stop-color="#A8AAAC"/>
<stop offset="0.55" stop-color="#C2C3C5"/>
<stop offset="0.77" stop-color="#E6E7E8"/>
<stop offset="0.78" stop-color="#E6E7E8"/>
<stop offset="1" stop-color="white"/>
</radialGradient>
<radialGradient id="paint25_radial_31_20154" cx="0" cy="0" r="1" gradientUnits="userSpaceOnUse" gradientTransform="translate(29814.1 280158) scale(659.999 350.373)">
<stop stop-color="#939598"/>
<stop offset="0.15" stop-color="#989A9D"/>
<stop offset="0.34" stop-color="#A8AAAC"/>
<stop offset="0.55" stop-color="#C2C3C5"/>
<stop offset="0.77" stop-color="#E6E7E8"/>
<stop offset="0.78" stop-color="#E6E7E8"/>
<stop offset="1" stop-color="white"/>
</radialGradient>
<radialGradient id="paint26_radial_31_20154" cx="0" cy="0" r="1" gradientUnits="userSpaceOnUse" gradientTransform="translate(15015.5 140308) scale(165.046 87.5945)">
<stop stop-color="#939598"/>
<stop offset="0.15" stop-color="#989A9D"/>
<stop offset="0.34" stop-color="#A8AAAC"/>
<stop offset="0.55" stop-color="#C2C3C5"/>
<stop offset="0.77" stop-color="#E6E7E8"/>
<stop offset="0.78" stop-color="#E6E7E8"/>
<stop offset="1" stop-color="white"/>
</radialGradient>
<radialGradient id="paint27_radial_31_20154" cx="0" cy="0" r="1" gradientUnits="userSpaceOnUse" gradientTransform="translate(35566 280089) scale(698.281 370.695)">
<stop stop-color="#939598"/>
<stop offset="0.15" stop-color="#989A9D"/>
<stop offset="0.34" stop-color="#A8AAAC"/>
<stop offset="0.55" stop-color="#C2C3C5"/>
<stop offset="0.77" stop-color="#E6E7E8"/>
<stop offset="0.78" stop-color="#E6E7E8"/>
<stop offset="1" stop-color="white"/>
</radialGradient>
<radialGradient id="paint28_radial_31_20154" cx="0" cy="0" r="1" gradientUnits="userSpaceOnUse" gradientTransform="translate(17933.3 140197) scale(174.613 92.6735)">
<stop stop-color="#939598"/>
<stop offset="0.15" stop-color="#989A9D"/>
<stop offset="0.34" stop-color="#A8AAAC"/>
<stop offset="0.55" stop-color="#C2C3C5"/>
<stop offset="0.77" stop-color="#E6E7E8"/>
<stop offset="0.78" stop-color="#E6E7E8"/>
<stop offset="1" stop-color="white"/>
</radialGradient>
<radialGradient id="paint29_radial_31_20154" cx="0" cy="0" r="1" gradientUnits="userSpaceOnUse" gradientTransform="translate(43300.5 425648) scale(1637.05 868.903)">
<stop stop-color="#939598"/>
<stop offset="0.15" stop-color="#989A9D"/>
<stop offset="0.34" stop-color="#A8AAAC"/>
<stop offset="0.55" stop-color="#C2C3C5"/>
<stop offset="0.77" stop-color="#E6E7E8"/>
<stop offset="0.78" stop-color="#E6E7E8"/>
<stop offset="1" stop-color="white"/>
</radialGradient>
<radialGradient id="paint30_radial_31_20154" cx="0" cy="0" r="1" gradientUnits="userSpaceOnUse" gradientTransform="translate(21732.3 212961) scale(409.155 217.169)">
<stop stop-color="#939598"/>
<stop offset="0.15" stop-color="#989A9D"/>
<stop offset="0.34" stop-color="#A8AAAC"/>
<stop offset="0.55" stop-color="#C2C3C5"/>
<stop offset="0.77" stop-color="#E6E7E8"/>
<stop offset="0.78" stop-color="#E6E7E8"/>
<stop offset="1" stop-color="white"/>
</radialGradient>
<radialGradient id="paint31_radial_31_20154" cx="0" cy="0" r="1" gradientUnits="userSpaceOnUse" gradientTransform="translate(23445.4 268688) scale(659.821 350.209)">
<stop stop-color="#939598"/>
<stop offset="0.15" stop-color="#989A9D"/>
<stop offset="0.34" stop-color="#A8AAAC"/>
<stop offset="0.55" stop-color="#C2C3C5"/>
<stop offset="0.77" stop-color="#E6E7E8"/>
<stop offset="0.78" stop-color="#E6E7E8"/>
<stop offset="1" stop-color="white"/>
</radialGradient>
<radialGradient id="paint32_radial_31_20154" cx="0" cy="0" r="1" gradientUnits="userSpaceOnUse" gradientTransform="translate(11771.6 134527) scale(164.955 87.5934)">
<stop stop-color="#939598"/>
<stop offset="0.15" stop-color="#989A9D"/>
<stop offset="0.34" stop-color="#A8AAAC"/>
<stop offset="0.55" stop-color="#C2C3C5"/>
<stop offset="0.77" stop-color="#E6E7E8"/>
<stop offset="0.78" stop-color="#E6E7E8"/>
<stop offset="1" stop-color="white"/>
</radialGradient>
<clipPath id="clip0_31_20154">
<rect width="481" height="559" rx="15" fill="white"/>
</clipPath>
</defs>
</svg>
