<svg width="146" height="98" viewBox="0 0 146 98" fill="none" xmlns="http://www.w3.org/2000/svg">
<g clip-path="url(#clip0_3_13)">
<g clip-path="url(#clip1_3_13)">
<path fill-rule="evenodd" clip-rule="evenodd" d="M10.6726 25.9287C9.5174 25.9287 8.58091 26.8485 8.58091 27.9831V70.9632C8.58091 72.0978 9.5174 73.0176 10.6726 73.0176H31.1615C32.3167 73.0176 33.2532 72.0978 33.2532 70.9632V27.9831C33.2532 26.8485 32.3167 25.9287 31.1615 25.9287H10.6726ZM7.60803 27.9831C7.60803 26.3207 8.98009 24.9731 10.6726 24.9731H31.1615C32.854 24.9731 34.2261 26.3207 34.2261 27.9831V70.9632C34.2261 72.6255 32.854 73.9731 31.1615 73.9731H10.6726C8.98009 73.9731 7.60803 72.6255 7.60803 70.9632V27.9831Z" fill="white"/>
<path d="M22.4734 29.7605H19.3018C18.3132 29.7605 17.5117 30.5477 17.5117 31.5187V67.4756C17.5117 68.4466 18.3132 69.2338 19.3018 69.2338H22.4734C23.4621 69.2338 24.2635 68.4466 24.2635 67.4756V31.5187C24.2635 30.5477 23.4621 29.7605 22.4734 29.7605Z" fill="white"/>
<path d="M21.8313 33.6303C19.3078 32.866 16.6368 32.6942 14.0333 33.1288C11.4299 33.5634 8.96663 34.5922 6.84191 36.1325C4.71718 37.6728 2.9903 39.6815 1.80026 41.9969C0.610208 44.3123 -0.00976562 46.8698 -0.00976562 49.4636C-0.00976562 52.0573 0.610208 54.6148 1.80026 56.9302C2.9903 59.2457 4.71718 61.2543 6.84191 62.7946C8.96663 64.3349 11.4299 65.3638 14.0333 65.7984C16.6368 66.233 19.3078 66.0612 21.8313 65.2968V33.6303Z" fill="#21C463"/>
<path d="M17.1322 56.2097V58.3214H15.1865V56.267C13.4784 56.2144 11.8198 55.6912 10.3999 54.7573L11.4603 52.4544C12.5639 53.209 13.8476 53.6699 15.1865 53.7922V50.6389C13.0559 50.1325 10.6723 49.4349 10.6723 46.7308C10.6723 44.7337 12.1511 43.0137 15.1865 42.6697V40.5771H17.1322V42.6315C18.5038 42.7117 19.8369 43.1078 21.0238 43.7877L20.0509 46.1097C19.1501 45.6086 18.1589 45.2841 17.1322 45.1541V48.3647C19.2628 48.8521 21.6075 49.5496 21.6075 52.1869C21.6075 54.1553 20.1482 55.8466 17.1322 56.2097ZM15.1865 47.8679V45.1828C14.2136 45.4121 13.7661 45.9568 13.7661 46.5779C13.7661 47.199 14.3595 47.6003 15.2059 47.8679H15.1865ZM18.4943 52.4162C18.4943 51.7569 17.9397 51.3938 17.1128 51.1071V53.7158C18.0857 53.5055 18.5137 53.0182 18.5137 52.4162H18.4943Z" fill="white"/>
<path d="M45.1806 35.5415V66.6538H38.5845V35.5415H45.1806Z" fill="white"/>
<path d="M56.9717 39.201C56.9739 39.6983 56.8677 40.1903 56.6604 40.6439C56.449 41.0906 56.1517 41.4929 55.7848 41.8288C55.4159 42.1759 54.9835 42.4515 54.5104 42.641C54.0171 42.8418 53.4876 42.9425 52.9537 42.9372C52.4386 42.9435 51.928 42.8425 51.4555 42.641C50.9938 42.4464 50.5719 42.1712 50.2102 41.8288C49.8512 41.4926 49.5635 41.0899 49.3638 40.6439C49.1596 40.1896 49.0567 39.6976 49.0622 39.201C49.0567 38.6952 49.1595 38.1939 49.3638 37.7295C49.5654 37.2761 49.8526 36.8644 50.2102 36.516C50.5697 36.1733 50.9923 35.9009 51.4555 35.7133C51.9332 35.5203 52.4472 35.4291 52.9635 35.4458C53.4974 35.4404 54.0269 35.5412 54.5201 35.742C54.9943 35.925 55.4273 36.1977 55.7946 36.5447C56.1609 36.892 56.4578 37.3036 56.6701 37.7582C56.8703 38.2138 56.9729 38.7049 56.9717 39.201Z" fill="#21C463"/>
<path d="M56.3009 45.1062H49.7437V66.6631H56.3009V45.1062Z" fill="white"/>
<path d="M67.0512 47.7628C67.895 46.873 68.8808 46.1242 69.9698 45.5459C71.1746 44.9476 72.5117 44.6521 73.8614 44.686C74.9659 44.6759 76.0556 44.9353 77.0329 45.4408C78.0334 45.957 78.8965 46.6967 79.5527 47.6004C80.315 48.6455 80.8786 49.8173 81.2163 51.0594C81.6364 52.5723 81.8394 54.1353 81.8195 55.7033C81.8338 57.2269 81.6006 58.7429 81.1288 60.1943C80.7049 61.4911 80.0457 62.7018 79.183 63.7681C78.3936 64.7536 77.3984 65.5616 76.2644 66.1378C75.0689 66.7119 73.752 67 72.4215 66.9787C71.4261 67.0093 70.4343 66.847 69.5028 66.5009C68.7324 66.1864 68.0194 65.7507 67.3917 65.2109V73.4859H60.8345V45.1064H64.8914C65.245 45.0751 65.5987 45.1657 65.8917 45.3628C66.1847 45.5598 66.3986 45.851 66.4966 46.1862L67.0512 47.7628ZM67.4501 60.7963C67.8916 61.2841 68.4406 61.6664 69.0553 61.9143C69.6344 62.1391 70.252 62.2527 70.8746 62.2488C71.4524 62.2563 72.0244 62.1354 72.548 61.8952C73.0808 61.638 73.5367 61.2495 73.8711 60.7677C74.2872 60.151 74.584 59.4643 74.7467 58.7419C74.979 57.7456 75.0868 56.7252 75.0677 55.7033C75.0824 54.7418 74.9976 53.7814 74.8148 52.8367C74.6883 52.1652 74.4483 51.5192 74.1046 50.9256C73.8446 50.49 73.4677 50.1329 73.0149 49.8936C72.5712 49.6873 72.0855 49.5828 71.5945 49.5879C70.7743 49.5554 69.9595 49.7332 69.2304 50.1039C68.5472 50.4989 67.9437 51.0139 67.4501 51.6232V60.7963Z" fill="white"/>
<path d="M84.738 48.0973C86.0251 46.9701 87.5215 46.0974 89.1452 45.5269C90.8161 44.9604 92.5727 44.676 94.3404 44.686C95.5682 44.6663 96.7879 44.8838 97.9303 45.3263C98.9513 45.7166 99.8741 46.3197 100.635 47.094C101.387 47.8627 101.967 48.7772 102.337 49.7791C102.744 50.8715 102.945 52.0273 102.931 53.1903V66.6539H99.9344C99.4507 66.6844 98.9666 66.5991 98.5238 66.4054C98.1418 66.1608 97.8594 65.7922 97.726 65.3639L97.259 64.179C96.7142 64.6377 96.1791 65.039 95.6732 65.3926C95.1768 65.7331 94.6492 66.0274 94.0971 66.2717C93.5417 66.5144 92.9611 66.697 92.3654 66.8163C91.6914 66.9363 91.0073 66.9938 90.3224 66.9883C89.3965 67.0003 88.4743 66.8713 87.5886 66.6061C86.8217 66.3732 86.1127 65.9859 85.5066 65.469C84.9262 64.9593 84.4734 64.3249 84.1835 63.6153C83.8586 62.7966 83.7 61.9234 83.7165 61.0449C83.7317 60.2244 83.9346 59.4178 84.31 58.6847C84.7935 57.7982 85.5002 57.0481 86.3627 56.5061C87.5582 55.748 88.8731 55.1894 90.2543 54.853C92.2944 54.3554 94.3883 54.1019 96.4904 54.0981V53.1426C96.5794 52.1674 96.2988 51.1943 95.7024 50.4097C95.409 50.1196 95.0558 49.8944 94.6665 49.7494C94.2772 49.6043 93.8608 49.5428 93.4453 49.5688C92.7871 49.5432 92.1292 49.6272 91.4995 49.8173C91.0451 49.9654 90.6055 50.1541 90.1862 50.3811C89.797 50.5817 89.4176 50.7728 89.0479 50.9353C88.6348 51.1145 88.1858 51.1995 87.7345 51.1837C87.3299 51.1943 86.932 51.0808 86.5962 50.8588C86.2951 50.6433 86.0377 50.3743 85.8374 50.0657L84.738 48.0973ZM96.5391 57.882C95.4556 57.9172 94.3762 58.029 93.3091 58.2165C92.6134 58.3377 91.9366 58.5464 91.2952 58.8376C90.878 59.0224 90.5235 59.3209 90.2737 59.6976C90.0783 60.0072 89.977 60.3653 89.9819 60.7295C89.9505 61.0169 89.9897 61.3075 90.0964 61.5768C90.203 61.8462 90.3739 62.0865 90.5948 62.2775C91.1289 62.6157 91.7609 62.7734 92.3946 62.7266C93.1601 62.7424 93.92 62.5957 94.6225 62.2966C95.3519 61.9431 96.0109 61.4642 96.5683 60.8824L96.5391 57.882Z" fill="white"/>
<path d="M126.99 35.5415V66.6538H122.933C122.579 66.682 122.226 66.5902 121.932 66.3938C121.638 66.1973 121.422 65.9081 121.318 65.5741L120.812 63.9305C120.387 64.3799 119.928 64.7982 119.441 65.1823C118.957 65.5525 118.435 65.8727 117.884 66.1378C117.311 66.4129 116.707 66.6214 116.084 66.7589C115.401 66.9085 114.702 66.9822 114.002 66.9787C112.896 66.9878 111.804 66.732 110.821 66.2334C109.827 65.7114 108.969 64.9726 108.311 64.0739C107.55 63.0243 106.987 61.8496 106.647 60.6053C106.225 59.0863 106.022 57.5166 106.044 55.9422C106.03 54.4225 106.259 52.9101 106.725 51.4608C107.146 50.1628 107.805 48.9516 108.671 47.8871C109.479 46.8998 110.495 46.0949 111.648 45.5269C112.84 44.9533 114.153 44.6621 115.481 44.6765C116.46 44.6499 117.435 44.8122 118.351 45.1542C119.122 45.4736 119.837 45.9088 120.472 46.4442V35.5415H126.99ZM120.433 50.8779C119.994 50.3921 119.444 50.0155 118.828 49.779C118.247 49.561 117.63 49.4509 117.008 49.4541C116.431 49.4486 115.859 49.5693 115.335 49.8077C114.8 50.0657 114.343 50.4579 114.012 50.9448C113.59 51.5582 113.292 52.2461 113.136 52.9705C112.905 53.9572 112.797 54.968 112.815 55.9805C112.801 56.9419 112.885 57.9024 113.068 58.8471C113.189 59.5202 113.429 60.1672 113.778 60.7582C114.036 61.196 114.413 61.5537 114.868 61.7901C115.31 62.0022 115.797 62.107 116.289 62.0959C116.724 62.1039 117.158 62.0589 117.582 61.9621C117.954 61.8798 118.314 61.7514 118.653 61.5799C118.988 61.4119 119.299 61.1997 119.577 60.9493C119.884 60.6739 120.17 60.3769 120.433 60.0606V50.8779Z" fill="white"/>
</g>
</g>
<defs>
<clipPath id="clip0_3_13">
<rect width="146" height="97" fill="white" transform="translate(0 0.973145)"/>
</clipPath>
<clipPath id="clip1_3_13">
<rect width="127" height="49" fill="white" transform="translate(0 24.9731)"/>
</clipPath>
</defs>
</svg>
