<svg width="127" height="50" viewBox="0 0 127 50" fill="none" xmlns="http://www.w3.org/2000/svg">
<g clip-path="url(#clip0_0_571)">
<path fill-rule="evenodd" clip-rule="evenodd" d="M10.6726 1.45554C9.5174 1.45554 8.58091 2.37533 8.58091 3.50995V46.4901C8.58091 47.6247 9.5174 48.5445 10.6726 48.5445H31.1615C32.3167 48.5445 33.2532 47.6247 33.2532 46.4901V3.50995C33.2532 2.37533 32.3167 1.45554 31.1615 1.45554H10.6726ZM7.60803 3.50995C7.60803 1.8476 8.98009 0.5 10.6726 0.5H31.1615C32.854 0.5 34.2261 1.8476 34.2261 3.50995V46.4901C34.2261 48.1524 32.854 49.5 31.1615 49.5H10.6726C8.98009 49.5 7.60803 48.1524 7.60803 46.4901V3.50995Z" fill="#263470"/>
<path d="M22.4734 5.28711H19.3018C18.3132 5.28711 17.5117 6.07428 17.5117 7.0453V43.0022C17.5117 43.9732 18.3132 44.7604 19.3018 44.7604H22.4734C23.4621 44.7604 24.2635 43.9732 24.2635 43.0022V7.0453C24.2635 6.07428 23.4621 5.28711 22.4734 5.28711Z" fill="#263470"/>
<path d="M21.8313 9.15715C19.3078 8.39282 16.6368 8.22104 14.0333 8.65564C11.4299 9.09024 8.96663 10.1191 6.84191 11.6594C4.71718 13.1996 2.9903 15.2083 1.80026 17.5238C0.610208 19.8392 -0.00976562 22.3967 -0.00976562 24.9904C-0.00976562 27.5841 0.610208 30.1416 1.80026 32.4571C2.9903 34.7725 4.71718 36.7812 6.84191 38.3215C8.96663 39.8618 11.4299 40.8906 14.0333 41.3252C16.6368 41.7598 19.3078 41.588 21.8313 40.8237V9.15715Z" fill="#21C463"/>
<path d="M17.1322 31.7366V33.8484H15.1865V31.7939C13.4784 31.7413 11.8198 31.2182 10.3999 30.2842L11.4603 27.9813C12.5639 28.7359 13.8476 29.1968 15.1865 29.3191V26.1658C13.0559 25.6594 10.6723 24.9618 10.6723 22.2577C10.6723 20.2606 12.1511 18.5406 15.1865 18.1966V16.104H17.1322V18.1584C18.5038 18.2386 19.8369 18.6347 21.0238 19.3146L20.0509 21.6366C19.1501 21.1355 18.1589 20.811 17.1322 20.681V23.8916C19.2628 24.379 21.6075 25.0765 21.6075 27.7138C21.6075 29.6822 20.1482 31.3735 17.1322 31.7366ZM15.1865 23.3948V20.7097C14.2136 20.939 13.7661 21.4837 13.7661 22.1048C13.7661 22.7259 14.3595 23.1272 15.2059 23.3948H15.1865ZM18.4943 27.9431C18.4943 27.2838 17.9397 26.9207 17.1128 26.634V29.2427C18.0857 29.0324 18.5137 28.5451 18.5137 27.9431H18.4943Z" fill="white"/>
<path d="M45.1806 11.0684V42.1807H38.5845V11.0684H45.1806Z" fill="#263470"/>
<path d="M56.9717 14.7279C56.9739 15.2252 56.8677 15.7171 56.6604 16.1708C56.449 16.6174 56.1517 17.0198 55.7848 17.3556C55.4159 17.7028 54.9835 17.9783 54.5104 18.1678C54.0171 18.3686 53.4876 18.4694 52.9537 18.4641C52.4386 18.4703 51.928 18.3694 51.4555 18.1678C50.9938 17.9733 50.5719 17.6981 50.2102 17.3556C49.8512 17.0195 49.5635 16.6168 49.3638 16.1708C49.1596 15.7165 49.0567 15.2245 49.0622 14.7279C49.0567 14.2221 49.1595 13.7207 49.3638 13.2564C49.5654 12.803 49.8526 12.3912 50.2102 12.0428C50.5697 11.7001 50.9923 11.4278 51.4555 11.2402C51.9332 11.0472 52.4472 10.956 52.9635 10.9726C53.4974 10.9673 54.0269 11.068 54.5201 11.2689C54.9943 11.4519 55.4273 11.7246 55.7946 12.0715C56.1609 12.4189 56.4578 12.8305 56.6701 13.285C56.8703 13.7406 56.9729 14.2317 56.9717 14.7279Z" fill="#21C463"/>
<path d="M56.3009 20.6328H49.7437V42.1898H56.3009V20.6328Z" fill="#263470"/>
<path d="M67.0512 23.2894C67.895 22.3996 68.8808 21.6508 69.9698 21.0726C71.1746 20.4742 72.5117 20.1787 73.8614 20.2126C74.9659 20.2025 76.0556 20.4619 77.0329 20.9674C78.0334 21.4836 78.8965 22.2233 79.5527 23.127C80.315 24.1721 80.8786 25.3439 81.2163 26.586C81.6364 28.0989 81.8394 29.6619 81.8195 31.2299C81.8338 32.7535 81.6006 34.2695 81.1288 35.721C80.7049 37.0177 80.0457 38.2284 79.183 39.2947C78.3936 40.2802 77.3984 41.0882 76.2644 41.6644C75.0689 42.2385 73.752 42.5266 72.4215 42.5053C71.4261 42.5359 70.4343 42.3736 69.5028 42.0275C68.7324 41.7131 68.0194 41.2773 67.3917 40.7375V49.0125H60.8345V20.633H64.8914C65.245 20.6017 65.5987 20.6923 65.8917 20.8894C66.1847 21.0864 66.3986 21.3776 66.4966 21.7128L67.0512 23.2894ZM67.4501 36.3229C67.8916 36.8107 68.4406 37.193 69.0553 37.4409C69.6344 37.6657 70.252 37.7793 70.8746 37.7754C71.4524 37.7829 72.0244 37.662 72.548 37.4218C73.0808 37.1646 73.5367 36.7761 73.8711 36.2943C74.2872 35.6776 74.584 34.9909 74.7467 34.2685C74.979 33.2722 75.0868 32.2518 75.0677 31.2299C75.0824 30.2684 74.9976 29.308 74.8148 28.3633C74.6883 27.6918 74.4483 27.0458 74.1046 26.4522C73.8446 26.0166 73.4677 25.6596 73.0149 25.4203C72.5712 25.2139 72.0855 25.1094 71.5945 25.1145C70.7743 25.082 69.9595 25.2598 69.2304 25.6305C68.5472 26.0255 67.9437 26.5405 67.4501 27.1498V36.3229Z" fill="#263470"/>
<path d="M84.738 23.6244C86.0251 22.4972 87.5215 21.6245 89.1452 21.054C90.8161 20.4875 92.5727 20.2031 94.3404 20.2131C95.5682 20.1934 96.7879 20.4109 97.9303 20.8534C98.9513 21.2437 99.8741 21.8468 100.635 22.6211C101.387 23.3898 101.967 24.3043 102.337 25.3062C102.744 26.3986 102.945 27.5544 102.931 28.7174V42.181H99.9344C99.4507 42.2115 98.9666 42.1262 98.5238 41.9325C98.1418 41.6879 97.8594 41.3193 97.726 40.891L97.259 39.7061C96.7142 40.1648 96.1791 40.5661 95.6732 40.9197C95.1768 41.2602 94.6492 41.5545 94.0971 41.7988C93.5417 42.0415 92.9611 42.2241 92.3654 42.3434C91.6914 42.4634 91.0073 42.5209 90.3224 42.5154C89.3965 42.5274 88.4743 42.3984 87.5886 42.1332C86.8217 41.9003 86.1127 41.513 85.5066 40.9961C84.9262 40.4864 84.4734 39.852 84.1835 39.1424C83.8586 38.3237 83.7 37.4505 83.7165 36.572C83.7317 35.7515 83.9346 34.9449 84.31 34.2118C84.7935 33.3253 85.5002 32.5752 86.3627 32.0332C87.5582 31.2751 88.8731 30.7165 90.2543 30.3801C92.2944 29.8825 94.3883 29.629 96.4904 29.6252V28.6697C96.5794 27.6945 96.2988 26.7214 95.7024 25.9368C95.409 25.6467 95.0558 25.4215 94.6665 25.2765C94.2772 25.1314 93.8608 25.0699 93.4453 25.0959C92.7871 25.0703 92.1292 25.1543 91.4995 25.3444C91.0451 25.4925 90.6055 25.6812 90.1862 25.9082C89.797 26.1088 89.4176 26.2999 89.0479 26.4624C88.6348 26.6416 88.1858 26.7266 87.7345 26.7108C87.3299 26.7214 86.932 26.6079 86.5962 26.3859C86.2951 26.1704 86.0377 25.9014 85.8374 25.5928L84.738 23.6244ZM96.5391 33.4091C95.4556 33.4443 94.3762 33.5561 93.3091 33.7436C92.6134 33.8647 91.9366 34.0735 91.2952 34.3647C90.878 34.5495 90.5235 34.8479 90.2737 35.2247C90.0783 35.5343 89.977 35.8924 89.9819 36.2566C89.9505 36.544 89.9897 36.8346 90.0964 37.1039C90.203 37.3733 90.3739 37.6136 90.5948 37.8046C91.1289 38.1428 91.7609 38.3005 92.3946 38.2537C93.1601 38.2695 93.92 38.1228 94.6225 37.8237C95.3519 37.4702 96.0109 36.9913 96.5683 36.4095L96.5391 33.4091Z" fill="#263470"/>
<path d="M126.99 11.0684V42.1807H122.933C122.579 42.2088 122.226 42.1171 121.932 41.9206C121.638 41.7242 121.422 41.4349 121.318 41.1009L120.812 39.4574C120.387 39.9067 119.928 40.3251 119.441 40.7091C118.957 41.0793 118.435 41.3995 117.884 41.6647C117.311 41.9398 116.707 42.1482 116.084 42.2858C115.401 42.4353 114.702 42.509 114.002 42.5056C112.896 42.5146 111.804 42.2588 110.821 41.7602C109.827 41.2382 108.969 40.4995 108.311 39.6007C107.55 38.5512 106.987 37.3765 106.647 36.1321C106.225 34.6131 106.022 33.0435 106.044 31.4691C106.03 29.9494 106.259 28.4369 106.725 26.9876C107.146 25.6897 107.805 24.4784 108.671 23.4139C109.479 22.4267 110.495 21.6218 111.648 21.0537C112.84 20.4802 114.153 20.1889 115.481 20.2033C116.46 20.1767 117.435 20.339 118.351 20.6811C119.122 21.0004 119.837 21.4356 120.472 21.9711V11.0684H126.99ZM120.433 26.4047C119.994 25.919 119.444 25.5424 118.828 25.3059C118.247 25.0879 117.63 24.9777 117.008 24.981C116.431 24.9754 115.859 25.0962 115.335 25.3345C114.8 25.5925 114.343 25.9848 114.012 26.4716C113.59 27.085 113.292 27.7729 113.136 28.4974C112.905 29.4841 112.797 30.4949 112.815 31.5073C112.801 32.4688 112.885 33.4293 113.068 34.3739C113.189 35.0471 113.429 35.6941 113.778 36.285C114.036 36.7229 114.413 37.0806 114.868 37.317C115.31 37.529 115.797 37.6339 116.289 37.6228C116.724 37.6307 117.158 37.5858 117.582 37.489C117.954 37.4067 118.314 37.2782 118.653 37.1068C118.988 36.9387 119.299 36.7265 119.577 36.4761C119.884 36.2008 120.17 35.9038 120.433 35.5875V26.4047Z" fill="#263470"/>
</g>
<defs>
<clipPath id="clip0_0_571">
<rect width="127" height="49" fill="white" transform="translate(0 0.5)"/>
</clipPath>
</defs>
</svg>
